# Blender 3.3.0
# www.blender.org
mtllib tibia_l_coll.mtl
o tibia_l_coll
v 0.013951 0.124213 0.019917
v -0.007677 0.125442 0.038312
v 0.012500 0.125240 0.038565
v -0.016411 0.021972 0.021252
v -0.014547 0.024049 0.027911
v -0.009453 0.024204 0.028566
v -0.009453 0.029355 0.021631
v -0.015089 0.030206 0.028327
v -0.009453 0.028761 0.027147
v -0.015537 0.093992 0.032808
v -0.015712 0.087137 0.030380
v -0.015703 0.071453 0.043411
v 0.018396 0.103108 0.020799
v 0.018690 0.101843 0.030281
v 0.018638 0.094055 0.032851
v 0.015628 0.002791 -0.010771
v 0.015883 -0.008386 -0.006967
v -0.009397 0.001853 -0.011543
v 0.004058 0.157937 0.031119
v 0.009538 0.133338 0.035625
v 0.009027 0.141548 0.035559
v -0.014642 0.027337 0.014839
v -0.013909 0.020972 0.011561
v 0.012244 0.133532 0.032996
v 0.008121 0.132676 0.038318
v 0.005466 0.120792 0.018999
v 0.004693 0.117515 0.018962
v -0.003030 0.117311 0.018742
v 0.005129 0.099752 0.018678
v 0.005109 0.097596 0.018652
v -0.002861 0.099672 0.018631
v 0.017148 0.028348 0.020241
v 0.018842 0.024862 0.022176
v -0.016355 -0.006428 -0.000732
v -0.014404 -0.010093 -0.005249
v -0.014387 -0.014637 -0.000912
v -0.009371 0.010740 0.000500
v -0.009453 0.009842 -0.009198
v -0.009453 0.018654 0.001904
v -0.014515 -0.005571 0.019496
v -0.014601 0.000684 0.022391
v -0.014509 -0.001697 0.010494
v 0.014860 0.112020 0.021181
v 0.018818 0.112213 0.031885
v -0.005271 0.122434 0.018994
v -0.016212 0.000513 -0.006879
v 0.001547 0.160392 0.028792
v -0.003098 0.157473 0.030205
v -0.016036 0.011023 0.032372
v -0.014727 0.010570 0.038454
v -0.010306 0.011216 0.034016
v -0.015817 0.069258 0.028574
v -0.015589 0.062246 0.028352
v -0.015807 0.057926 0.021286
v 0.018775 0.044155 0.020549
v 0.018820 0.037934 0.030170
v 0.018605 0.057926 0.021244
v -0.002799 0.097594 0.018584
v -0.013925 0.010397 -0.007524
v 0.018847 0.082236 0.022013
v 0.018788 0.087137 0.030338
v 0.017738 0.093851 0.020346
v -0.015386 0.095766 0.037748
v -0.016658 0.009649 0.024041
v 0.018683 0.069258 0.028531
v 0.016606 0.001583 0.001045
v 0.018356 0.012936 0.000677
v 0.019449 -0.002598 0.011474
v -0.014068 0.009135 0.013068
v 0.003099 0.157294 0.023955
v 0.008230 0.132732 0.019467
v -0.007301 0.132483 0.019967
v 0.018758 0.049859 0.047873
v 0.018797 0.058915 0.043661
v 0.018797 0.071453 0.043369
v 0.011793 0.132321 0.020166
v -0.015385 0.003507 0.029443
v -0.010210 0.003313 0.030790
v -0.010053 0.004201 0.036533
v -0.007172 0.132271 0.038150
v -0.015298 0.093440 0.020880
v -0.024953 -0.004650 0.000034
v -0.018856 0.001003 0.001032
v -0.024953 0.000664 0.000636
v -0.005930 0.141562 0.035558
v -0.008524 0.133498 0.033630
v -0.009431 -0.012052 -0.005014
v -0.009454 -0.014587 -0.001011
v -0.009381 -0.010662 -0.002303
v -0.015410 0.121331 0.022273
v -0.015723 0.112322 0.032099
v -0.015624 0.120802 0.034301
v -0.009454 0.003069 -0.014248
v 0.013836 0.003119 -0.014249
v 0.018797 0.101429 0.036557
v 0.018499 0.095766 0.037674
v 0.015912 0.009229 -0.009296
v -0.009399 0.020406 0.012526
v -0.010246 -0.005524 0.019130
v -0.010056 -0.007647 0.011679
v -0.014443 0.028406 0.019603
v -0.009453 0.025987 0.021756
v -0.009453 0.027430 0.014201
v 0.008188 0.141361 0.036448
v 0.009118 0.125320 0.038215
v 0.011550 0.112554 0.037721
v 0.009344 0.112554 0.037843
v -0.014013 0.013124 -0.000424
v -0.013700 0.018938 0.004154
v -0.015703 0.101429 0.036599
v -0.015391 0.102116 0.029990
v -0.014574 -0.007697 0.011782
v 0.016771 -0.008189 0.012019
v 0.017038 -0.005633 0.019413
v -0.002623 0.156580 0.024399
v -0.014453 0.002664 -0.014246
v -0.014621 0.004038 0.037790
v -0.010056 0.010169 0.037411
v -0.009353 -0.003326 0.009313
v -0.005072 0.141299 0.036486
v -0.015710 0.034277 0.049429
v -0.015703 0.016184 0.047089
v -0.015760 0.034271 0.044518
v -0.014199 0.122977 0.040516
v 0.018298 0.009870 0.033203
v 0.017317 0.024154 0.027946
v -0.006141 0.010617 0.010664
v 0.008685 0.141465 0.021661
v -0.015703 0.048950 0.028649
v 0.019571 0.010667 0.008220
v 0.016999 0.002790 0.030659
v 0.016748 -0.001517 0.022055
v -0.015695 0.020633 0.039761
v -0.015540 0.102946 0.020903
v 0.018087 0.121400 0.034360
v 0.007747 0.124219 0.034792
v 0.011782 0.132047 0.038186
v 0.016345 0.018925 0.003883
v -0.015680 0.037929 0.030182
v 0.015758 -0.010900 -0.001295
v -0.009973 -0.000137 0.021983
v 0.016504 0.004112 0.037299
v 0.017012 0.010248 0.038401
v 0.013905 -0.014588 -0.000859
v 0.018911 0.062246 0.028310
v 0.018790 0.034277 0.049387
v 0.018797 0.016184 0.047047
v 0.018740 0.034271 0.044476
v 0.017032 0.027435 0.014608
v 0.017658 0.040755 0.050588
v 0.016515 0.022527 0.010876
v -0.015703 0.080271 0.037229
v 0.018820 0.048959 0.028598
v 0.017903 0.030371 0.028355
v -0.015725 0.044155 0.020591
v 0.018809 0.043530 0.044299
v -0.015704 0.111667 0.022170
v 0.018797 0.071522 0.047154
v -0.015653 0.082236 0.022055
v -0.024953 0.000084 -0.004694
v -0.015703 0.058915 0.043703
v -0.015742 0.049859 0.047915
v -0.018367 0.040523 0.050530
v 0.018805 0.020633 0.039719
v -0.015703 0.071522 0.047196
v 0.018797 0.080271 0.037187
v -0.015703 0.039102 0.056154
v -0.015691 0.043530 0.044341
v -0.005573 0.141427 0.021633
vn 0.0107 0.9985 -0.0542
vn 0.0096 0.9538 -0.3002
vn 0.2672 0.9581 0.1030
vn -0.9996 0.0177 0.0221
vn 0.9993 -0.0176 -0.0333
vn 0.0412 -0.3210 -0.9462
vn -0.7366 -0.0404 0.6752
vn -0.9676 0.0181 -0.2517
vn -0.2995 -0.8781 -0.3731
vn 0.0283 0.0046 -0.9996
vn 0.0057 0.0121 -0.9999
vn 0.0641 0.5078 0.8591
vn -0.9477 -0.2223 -0.2291
vn 0.9999 0.0120 -0.0095
vn -0.9999 -0.0112 -0.0055
vn 0.8727 0.3604 -0.3292
vn 0.0295 0.1901 -0.9813
vn -0.5222 -0.2159 -0.8251
vn -0.1394 0.6023 0.7860
vn -0.0584 0.9945 0.0866
vn 0.9981 0.0340 -0.0515
vn -0.9999 -0.0122 -0.0033
vn 0.0085 0.0121 -0.9999
vn 0.1950 -0.0350 -0.9802
vn -0.3088 0.2659 -0.9132
vn -0.9951 -0.0886 0.0450
vn -0.0013 0.9411 -0.3380
vn -0.9900 0.1311 0.0524
vn -0.9999 0.0070 -0.0112
vn 0.9357 -0.1546 -0.3171
vn -0.9685 -0.0185 -0.2482
vn -0.0345 0.1727 -0.9844
vn 0.9372 0.0339 -0.3472
vn 1.0000 0.0002 0.0098
vn 0.1555 -0.9840 0.0874
vn -0.0996 0.0053 -0.9950
vn -0.0770 -0.9850 0.1543
vn -0.1404 0.3182 0.9376
vn -0.9592 -0.1800 -0.2180
vn 0.0132 -0.9988 0.0465
vn -0.0583 -0.1123 0.9920
vn -0.9404 0.2464 0.2346
vn -0.9997 0.0211 0.0074
vn -0.0503 0.9956 -0.0785
vn -0.9997 0.0160 -0.0171
vn -0.9489 -0.1037 0.2979
vn 0.0021 -0.9955 -0.0949
vn 0.9981 -0.0438 0.0444
vn 0.0926 0.9257 -0.3667
vn 0.0341 -0.9609 0.2747
vn 0.9995 -0.0074 -0.0319
vn -0.3819 0.0345 0.9236
vn -0.0083 -0.4250 -0.9051
vn -0.3980 -0.8133 0.4244
vn -0.9579 0.1848 0.2199
vn 1.0000 0.0082 -0.0021
vn -0.3377 -0.7970 0.5008
vn -0.6334 -0.3754 -0.6767
vn -0.0554 0.0280 -0.9981
vn -0.9939 0.0962 -0.0543
vn -0.9989 0.0017 -0.0470
vn -0.0178 0.2714 0.9623
vn -0.9999 0.0118 0.0044
vn 0.9004 -0.4202 0.1128
vn -0.3461 0.5918 -0.7280
vn -0.1005 0.1988 -0.9749
vn -0.0038 -0.9597 -0.2811
vn 0.0056 0.0226 -0.9997
vn -0.3726 -0.7928 0.4823
vn -0.9886 0.0419 0.1450
vn 0.2091 -0.0956 0.9732
vn 0.0058 0.0064 -1.0000
vn -0.9999 0.0088 -0.0095
vn -0.3254 -0.4128 -0.8507
vn -0.0202 0.9865 -0.1626
vn 0.2310 0.2274 -0.9460
vn -0.8442 0.2805 0.4567
vn -0.0441 0.9869 -0.1555
vn -0.9999 0.0135 -0.0001
vn 0.9999 0.0017 -0.0102
vn 0.1530 0.0195 -0.9880
vn 0.9999 -0.0101 0.0049
vn -0.4995 0.8381 0.2194
vn 0.1182 -0.9464 -0.3006
vn -0.9655 -0.2341 0.1137
vn 0.9965 -0.0055 -0.0830
vn -0.9760 0.0205 0.2167
vn 0.1138 -0.0157 -0.9934
vn -0.0075 -0.6904 -0.7234
vn -0.0184 0.9333 -0.3587
vn 0.2674 -0.1401 0.9534
vn 0.2407 0.4662 -0.8513
vn 0.9484 0.1648 0.2708
vn -0.3029 0.0798 -0.9497
vn 0.9998 -0.0125 -0.0179
vn -0.0818 0.9648 -0.2499
vn 0.2477 0.2240 -0.9426
vn 0.0077 0.9674 0.2532
vn -0.9996 0.0091 0.0252
vn 0.9987 0.0012 0.0509
vn 0.9992 0.0248 -0.0311
vn 0.9712 -0.1556 -0.1802
vn -0.0831 0.9830 -0.1634
vn 0.9758 -0.2058 0.0745
vn 0.3064 0.0248 -0.9516
vn 0.9788 0.2005 -0.0428
vn 0.1361 0.0108 -0.9906
vn 0.9946 0.0886 0.0549
vn 0.2329 0.2560 -0.9382
vn 0.0430 0.3477 0.9366
vn -0.7969 0.3753 0.4733
vn -0.9995 0.0244 0.0186
vn -0.0185 0.9970 -0.0757
vn 0.7212 0.0505 0.6909
vn 0.2097 0.8446 -0.4927
vn -0.0936 0.0371 0.9949
vn 0.9689 0.0505 0.2422
vn -0.1227 0.2293 -0.9656
vn -0.9506 0.3104 0.0041
vn 0.9871 0.1297 -0.0938
vn -0.2746 0.3804 -0.8831
vn -0.9907 0.0459 -0.1285
vn -0.9999 -0.0001 0.0140
vn 0.0351 -0.3132 -0.9490
vn 0.0055 -0.4199 0.9076
vn 0.9620 -0.0962 0.2554
vn -0.0997 -0.9082 -0.4065
vn -0.0022 0.0298 -0.9996
vn -0.0265 -0.4667 0.8840
vn 0.9611 -0.1239 0.2468
vn 0.9831 -0.1773 0.0444
vn 0.0064 -0.1205 -0.9927
vn 0.9960 0.0296 0.0840
vn 0.9775 0.0370 -0.2076
vn 0.9137 0.3977 -0.0833
vn -0.0050 -0.4677 0.8839
vn 0.0635 -0.8310 0.5526
vn 0.9961 -0.0244 -0.0849
vn 0.1724 0.9429 0.2851
vn 0.1150 -0.0173 -0.9932
vn 0.0778 -0.9618 -0.2623
vn 0.9623 0.1497 0.2272
vn -0.7919 0.2604 0.5523
vn 0.0221 0.3856 0.9224
vn 0.9907 -0.0989 0.0936
vn -0.1024 0.8510 -0.5151
vn 0.9701 0.0128 -0.2426
vn -0.9986 -0.0022 0.0531
vn -0.1236 -0.4215 -0.8983
vn 1.0000 -0.0032 -0.0046
vn -0.9948 0.0905 -0.0471
vn 0.0535 0.0372 0.9979
vn -0.3745 0.1979 0.9058
vn 0.0166 -0.9640 0.2655
vn 0.9992 -0.0076 -0.0386
vn 0.9926 -0.1009 -0.0672
vn -0.5147 0.8569 0.0285
vn 1.0000 0.0060 -0.0008
vn -0.0223 -0.9793 0.2011
vn 0.0085 0.0227 -0.9997
vn -0.9268 0.1935 -0.3218
vn 0.0155 -0.9773 0.2114
vn -0.9248 -0.2414 -0.2941
vn 0.0651 -0.1122 0.9915
vn -1.0000 -0.0001 -0.0008
vn -0.9731 -0.0321 -0.2282
vn -0.0685 0.9971 -0.0318
vn 0.9811 0.1589 -0.1103
vn -0.2679 -0.1181 -0.9562
vn -0.9387 0.0322 -0.3433
vn -0.9753 -0.2201 -0.0203
vn -0.2663 0.3878 0.8825
vn -0.1274 -0.9256 0.3564
vn 0.2122 0.2184 -0.9525
vn 1.0000 -0.0018 -0.0000
vn 0.0562 0.9436 -0.3261
vn 0.0241 0.0149 -0.9996
vn 0.9996 -0.0055 -0.0275
vn -0.9627 0.2118 -0.1681
vn 0.0201 -0.0171 0.9997
vn -0.0046 -0.2310 0.9729
vn -0.5209 -0.8535 -0.0124
vn -0.4107 -0.1243 -0.9033
vn 0.9993 -0.0291 0.0243
vn -0.0443 0.9752 -0.2171
vn -0.8709 -0.0971 -0.4819
vn -0.9989 0.0446 -0.0167
vn -0.3480 -0.8315 0.4329
vn -0.0283 0.9741 0.2243
vn 0.1435 -0.0915 -0.9854
vn -0.9995 0.0186 0.0239
vn -0.0229 -0.9616 0.2734
vn 0.1660 -0.0894 -0.9821
vn 0.9996 0.0176 0.0227
vn -0.1833 -0.6809 -0.7090
vn -0.0099 -0.6946 0.7194
vn 0.5865 -0.0328 0.8093
vn 0.0085 0.0528 -0.9986
vn -0.9997 -0.0209 0.0145
vn 0.9631 -0.0151 -0.2686
vn -0.9953 -0.0774 -0.0577
vn -0.3226 0.6461 -0.6917
vn 0.0516 -0.9969 0.0587
vn 0.0021 0.0108 -0.9999
vn 0.0200 0.2096 0.9776
vn 0.0468 -0.9106 -0.4107
vn -0.0660 -0.7374 -0.6722
vn -0.1013 0.8854 -0.4536
vn -0.1290 0.9891 -0.0715
vn -0.0452 -0.9971 0.0614
vn -0.1799 -0.0022 -0.9837
vn -0.9978 -0.0463 0.0472
vn 0.9644 -0.1067 0.2418
vn -0.9733 0.2057 -0.1024
vn 0.1310 0.8815 -0.4537
vn 0.9992 -0.0088 -0.0379
vn 0.1743 0.9508 -0.2562
vn -0.4089 0.3419 0.8461
vn 0.0483 -0.7087 -0.7039
vn 0.9999 0.0122 -0.0002
vn 0.8694 -0.4586 -0.1840
vn 0.6646 0.7472 0.0040
vn 0.9834 -0.0518 -0.1740
vn -0.9994 0.0254 0.0215
vn 0.8025 0.4677 -0.3705
vn -0.0233 -0.7200 0.6936
vn -0.9255 -0.3457 0.1549
vn -0.0473 -0.8927 0.4482
vn 0.9948 -0.1017 -0.0041
vn -1.0000 -0.0000 -0.0000
vn 0.0972 0.9938 0.0531
vn 0.9999 -0.0067 0.0117
vn -0.3060 -0.0172 -0.9519
vn -0.0700 0.9939 -0.0850
vn 0.0822 -0.4176 0.9049
vn 0.9973 0.0344 -0.0642
vn -0.9897 -0.0798 -0.1189
vn -0.8991 0.2722 0.3429
vn 0.9962 0.0478 -0.0725
vn 0.5181 -0.3626 -0.7747
vn 0.0420 0.9767 -0.2104
vn 0.9847 0.1739 -0.0102
vn 0.6597 0.2751 0.6994
vn 0.0268 0.0608 -0.9978
vn -0.9995 0.0305 -0.0039
vn -0.0756 0.9913 -0.1077
vn 0.9829 -0.1577 -0.0947
vn 0.0034 -0.8449 -0.5350
vn -0.0483 0.9930 -0.1079
vn -0.1721 0.0170 -0.9849
vn -0.9999 0.0130 -0.0002
vn -0.4084 0.8867 -0.2167
vn -0.7231 0.0683 0.6873
vn 0.8751 0.4213 -0.2382
vn 0.9995 0.0254 0.0189
vn -0.2781 -0.1987 -0.9398
vn 0.0408 -0.9926 -0.1145
vn 0.9195 0.3929 -0.0098
vn 0.1569 0.9743 -0.1615
vn 0.9853 -0.0830 -0.1493
vn 0.1037 0.0307 -0.9941
vn -0.9577 0.2866 -0.0244
vn -0.9880 -0.1222 0.0940
vn 0.1239 0.9912 -0.0471
vn -0.7614 -0.6286 0.1583
vn -0.1323 -0.9241 0.3585
vn -0.0493 -0.2464 0.9679
vn 0.0200 0.8991 -0.4373
vn -0.6386 0.3451 0.6879
vn 0.0064 0.4876 0.8731
vn 0.1011 -0.0682 -0.9925
vn 0.9898 0.0791 0.1187
vn 0.9998 -0.0096 -0.0177
vn -0.9992 0.0389 0.0074
vn -0.0177 -0.9776 0.2099
vn -0.0553 0.0704 -0.9960
vn 0.0419 -0.2174 0.9752
vn 0.0022 0.8664 0.4994
vn 0.9899 0.1190 -0.0768
vn 0.9749 -0.1471 -0.1672
vn -0.2458 0.3105 0.9183
vn -0.3553 0.1099 -0.9283
vn -0.9985 -0.0222 -0.0495
vn 0.9180 0.3060 -0.2523
vn 0.8524 0.4489 -0.2683
vn 0.9752 0.0593 -0.2131
vn -1.0000 -0.0002 -0.0057
vn 0.8574 0.4178 -0.3006
vn 0.9994 -0.0051 -0.0355
vn -0.9874 -0.1238 0.0983
vn -0.0133 0.0373 0.9992
vn -0.1572 0.0745 -0.9847
vn 0.2103 0.9576 0.1970
vn 0.1042 0.0582 -0.9929
vn 0.0007 -0.9425 0.3342
vn -0.9573 0.2608 -0.1247
vn -0.3716 -0.2842 -0.8838
vn -0.9477 -0.3131 0.0628
vn 0.9996 0.0046 -0.0280
vn 0.1484 0.0378 -0.9882
vn 0.9999 -0.0105 -0.0118
vn -1.0000 -0.0021 -0.0000
vn -0.9921 0.1031 0.0713
vn -0.8804 -0.3675 0.2997
vn 0.0805 -0.4696 0.8792
vn 0.9024 -0.4304 0.0189
vn -0.1869 -0.7225 -0.6656
vn 0.0735 -0.9089 -0.4105
vn 0.9999 -0.0070 0.0112
vn -0.9178 -0.0008 -0.3972
vn 1.0000 0.0036 0.0033
vn -0.9995 -0.0325 0.0003
vn -0.9715 0.2091 -0.1115
vn 0.0074 -0.5007 -0.8656
vn -0.9245 0.3518 -0.1466
vn -1.0000 -0.0002 -0.0098
vn 0.0190 0.2817 -0.9593
vn -0.0081 -0.9887 -0.1497
vn 0.8862 -0.3801 0.2650
vn 0.9585 0.1428 -0.2467
vn 0.9952 -0.0674 -0.0706
vn -0.1612 0.9719 -0.1714
vn 0.0106 0.8955 -0.4449
vn -0.9997 -0.0198 0.0131
vn 0.9687 -0.2194 0.1160
vn -0.1171 0.4440 -0.8883
vn -1.0000 0.0018 -0.0000
vn 0.9636 0.0047 0.2673
vn 0.5657 0.8246 -0.0014
vn -0.0148 -0.4783 -0.8781
vn -0.9111 -0.0242 0.4114
vn -0.0091 -0.9463 0.3233
vn -0.0799 -0.7090 -0.7007
vn 0.9999 0.0081 -0.0064
vn -0.0162 -0.9311 0.3644
vn -0.2760 -0.1706 0.9459
vn -0.0767 0.9609 -0.2660
vn 0.9978 -0.0664 -0.0073
vn 0.0136 -0.9552 -0.2956
vn -0.1444 -0.9485 -0.2819
vn 0.1924 -0.1265 -0.9731
vn 0.9992 -0.0332 0.0216
vn 0.0018 -0.9999 0.0162
vn -0.0091 -0.4374 -0.8992
vn -0.1303 0.3345 0.9333
vn -0.9661 0.0753 0.2469
vn -0.9970 -0.0670 -0.0388
vn -0.8948 0.2426 -0.3748
vn -0.2936 -0.8068 -0.5127
vn 0.9202 0.3510 -0.1731
vn -0.9997 -0.0152 -0.0176
vn 0.0374 0.9906 0.1313
vn -0.9840 0.0039 -0.1783
vn 0.9936 -0.0890 -0.0703
vn -0.0181 0.0155 -0.9997
vn -0.0057 0.0205 -0.9998
vn 0.4685 0.8793 -0.0854
vn -0.5735 0.0795 -0.8153
vn 0.0016 0.2233 -0.9747
vn -0.9481 -0.1997 -0.2476
vn -0.1003 0.9729 -0.2082
vn 0.0019 -0.9119 -0.4103
vn -0.9994 -0.0279 -0.0222
s 0
f 1//1 2//1 3//1
f 4//2 5//2 6//2
f 7//3 8//3 9//3
f 10//4 11//4 12//4
f 13//5 14//5 15//5
f 16//6 17//6 18//6
f 19//7 20//7 21//7
f 4//8 22//8 23//8
f 20//9 24//9 25//9
f 26//10 27//10 28//10
f 29//11 30//11 31//11
f 32//12 7//12 33//12
f 34//13 35//13 36//13
f 37//14 38//14 39//14
f 40//15 41//15 42//15
f 43//16 44//16 13//16
f 1//17 26//17 45//17
f 35//18 46//18 18//18
f 19//19 47//19 48//19
f 49//20 50//20 51//20
f 52//21 53//21 54//21
f 55//22 56//22 57//22
f 29//23 30//23 58//23
f 27//24 26//24 43//24
f 59//25 38//25 18//25
f 60//26 61//26 62//26
f 10//27 63//27 15//27
f 5//28 64//28 49//28
f 60//29 65//29 61//29
f 66//30 67//30 68//30
f 4//31 23//31 69//31
f 70//32 71//32 72//32
f 43//33 1//33 44//33
f 73//34 74//34 75//34
f 20//35 76//35 24//35
f 45//36 28//36 31//36
f 77//37 78//37 79//37
f 80//38 19//38 48//38
f 41//39 64//39 69//39
f 62//40 10//40 81//40
f 82//41 83//41 84//41
f 85//42 48//42 86//42
f 87//43 88//43 89//43
f 83//44 46//44 84//44
f 90//45 91//45 92//45
f 4//46 5//46 8//46
f 16//47 93//47 94//47
f 95//48 96//48 15//48
f 67//49 97//49 98//49
f 99//50 40//50 100//50
f 13//51 44//51 14//51
f 7//52 101//52 102//52
f 17//53 87//53 18//53
f 34//54 87//54 89//54
f 5//55 49//55 50//55
f 7//56 98//56 103//56
f 34//57 35//57 87//57
f 19//58 21//58 104//58
f 105//59 106//59 107//59
f 108//60 23//60 109//60
f 110//61 111//61 10//61
f 19//62 80//62 25//62
f 112//63 40//63 42//63
f 113//64 68//64 114//64
f 39//65 108//65 109//65
f 115//66 70//66 72//66
f 46//67 116//67 18//67
f 29//68 58//68 31//68
f 34//69 35//69 89//69
f 34//70 112//70 42//70
f 117//71 118//71 50//71
f 28//72 29//72 31//72
f 112//73 41//73 42//73
f 119//74 100//74 42//74
f 98//75 39//75 109//75
f 98//76 23//76 103//76
f 80//77 120//77 48//77
f 19//78 115//78 48//78
f 23//79 108//79 69//79
f 121//80 122//80 123//80
f 27//81 13//81 29//81
f 60//82 65//82 57//82
f 4//83 6//83 102//83
f 118//84 49//84 51//84
f 34//85 36//85 112//85
f 16//86 66//86 17//86
f 92//87 63//87 124//87
f 27//88 26//88 1//88
f 36//89 35//89 88//89
f 108//90 38//90 59//90
f 118//91 117//91 79//91
f 22//92 98//92 23//92
f 125//93 33//93 126//93
f 98//94 127//94 69//94
f 14//95 95//95 15//95
f 101//96 7//96 103//96
f 71//97 70//97 128//97
f 102//98 6//98 126//98
f 129//99 53//99 54//99
f 125//100 130//100 33//100
f 78//101 51//101 79//101
f 97//102 67//102 66//102
f 1//103 45//103 2//103
f 131//104 132//104 125//104
f 62//105 1//105 13//105
f 3//106 96//106 15//106
f 62//107 30//107 29//107
f 122//108 50//108 133//108
f 98//109 127//109 23//109
f 51//110 125//110 126//110
f 108//111 83//111 42//111
f 111//112 134//112 10//112
f 71//113 72//113 86//113
f 20//114 21//114 104//114
f 135//115 136//115 3//115
f 7//116 4//116 102//116
f 132//117 68//117 130//117
f 98//118 22//118 103//118
f 76//119 137//119 24//119
f 132//120 131//120 114//120
f 138//121 67//121 98//121
f 41//122 40//122 77//122
f 139//123 129//123 54//123
f 140//124 88//124 89//124
f 41//125 40//125 141//125
f 68//126 132//126 114//126
f 46//127 93//127 18//127
f 3//128 96//128 63//128
f 99//129 132//129 141//129
f 142//130 125//130 143//130
f 132//131 130//131 125//131
f 140//132 144//132 88//132
f 60//133 65//133 145//133
f 117//134 49//134 50//134
f 146//80 147//80 148//80
f 149//135 32//135 33//135
f 41//136 99//136 141//136
f 99//137 113//137 132//137
f 16//138 97//138 66//138
f 137//139 24//139 25//139
f 27//140 1//140 13//140
f 93//141 46//141 116//141
f 143//142 125//142 126//142
f 150//143 73//143 74//143
f 6//144 51//144 126//144
f 142//145 131//145 143//145
f 151//146 98//146 102//146
f 16//147 97//147 67//147
f 92//148 91//148 63//148
f 87//149 35//149 18//149
f 11//150 152//150 12//150
f 108//151 109//151 59//151
f 32//152 7//152 102//152
f 19//153 25//153 104//153
f 40//154 112//154 100//154
f 57//155 145//155 153//155
f 55//156 154//156 32//156
f 2//157 90//157 92//157
f 139//158 155//158 54//158
f 140//159 113//159 100//159
f 30//160 58//160 31//160
f 59//161 46//161 83//161
f 100//162 112//162 89//162
f 46//163 34//163 83//163
f 82//164 34//164 84//164
f 153//165 56//165 156//165
f 64//166 4//166 69//166
f 80//167 20//167 71//167
f 130//168 67//168 33//168
f 23//169 127//169 69//169
f 90//170 134//170 157//170
f 64//171 41//171 77//171
f 49//172 51//172 6//172
f 41//173 78//173 77//173
f 76//174 71//174 70//174
f 158//175 73//175 75//175
f 136//176 105//176 3//176
f 28//177 26//177 29//177
f 159//178 53//178 54//178
f 116//179 46//179 59//179
f 34//180 36//180 88//180
f 80//181 137//181 25//181
f 112//182 34//182 89//182
f 43//183 1//183 13//183
f 11//184 159//184 81//184
f 22//185 101//185 103//185
f 20//186 25//186 104//186
f 41//187 69//187 42//187
f 35//188 87//188 89//188
f 20//189 80//189 25//189
f 26//190 1//190 43//190
f 10//191 12//191 63//191
f 113//192 99//192 100//192
f 27//193 1//193 43//193
f 96//194 75//194 15//194
f 41//195 127//195 141//195
f 131//196 118//196 78//196
f 135//197 3//197 15//197
f 45//198 26//198 28//198
f 157//199 134//199 111//199
f 66//200 68//200 140//200
f 8//201 155//201 101//201
f 4//202 8//202 102//202
f 117//203 77//203 79//203
f 26//204 27//204 45//204
f 112//205 100//205 42//205
f 93//206 16//206 18//206
f 127//207 41//207 69//207
f 151//208 138//208 98//208
f 115//209 19//209 70//209
f 51//210 125//210 143//210
f 81//211 134//211 58//211
f 110//212 10//212 63//212
f 33//213 154//213 126//213
f 48//214 72//214 86//214
f 8//215 9//215 102//215
f 57//216 60//216 145//216
f 23//217 98//217 109//217
f 4//218 7//218 101//218
f 87//219 17//219 144//219
f 96//220 158//220 75//220
f 17//221 140//221 144//221
f 80//222 72//222 86//222
f 68//223 67//223 130//223
f 111//224 10//224 63//224
f 97//225 138//225 67//225
f 118//226 131//226 143//226
f 76//227 19//227 70//227
f 132//228 131//228 141//228
f 151//229 149//229 32//229
f 9//230 7//230 102//230
f 118//231 49//231 50//231
f 159//232 52//232 54//232
f 90//233 45//233 31//233
f 83//234 46//234 160//234
f 41//235 40//235 99//235
f 57//236 65//236 145//236
f 5//237 50//237 133//237
f 80//238 120//238 86//238
f 61//239 62//239 15//239
f 161//240 162//240 163//240
f 151//241 102//241 33//241
f 150//242 146//242 148//242
f 19//243 20//243 24//243
f 45//244 27//244 28//244
f 90//245 157//245 91//245
f 46//246 160//246 84//246
f 164//247 147//247 143//247
f 87//248 144//248 88//248
f 83//249 160//249 84//249
f 58//250 134//250 31//250
f 12//251 165//251 63//251
f 2//252 92//252 124//252
f 120//253 85//253 86//253
f 138//254 151//254 67//254
f 134//255 10//255 81//255
f 119//256 112//256 42//256
f 94//257 16//257 18//257
f 121//258 123//258 163//258
f 98//259 39//259 23//259
f 154//260 164//260 126//260
f 105//261 3//261 107//261
f 22//262 4//262 101//262
f 49//263 64//263 77//263
f 20//264 76//264 71//264
f 19//265 47//265 70//265
f 41//266 141//266 78//266
f 34//267 83//267 84//267
f 97//268 38//268 98//268
f 61//150 166//150 75//150
f 120//269 48//269 85//269
f 32//270 102//270 33//270
f 105//271 3//271 63//271
f 5//272 8//272 133//272
f 44//273 95//273 14//273
f 69//274 108//274 42//274
f 140//275 100//275 89//275
f 3//276 106//276 107//276
f 82//277 34//277 83//277
f 76//278 71//278 72//278
f 113//279 132//279 114//279
f 164//280 143//280 126//280
f 101//281 4//281 102//281
f 2//282 63//282 124//282
f 111//283 110//283 91//283
f 151//284 32//284 33//284
f 159//133 52//133 53//133
f 67//285 151//285 33//285
f 151//286 149//286 33//286
f 7//287 98//287 102//287
f 167//288 121//288 163//288
f 56//289 57//289 153//289
f 117//290 49//290 77//290
f 7//291 102//291 33//291
f 134//292 90//292 31//292
f 80//293 71//293 86//293
f 105//294 3//294 106//294
f 96//295 63//295 15//295
f 4//296 8//296 101//296
f 88//297 34//297 89//297
f 19//298 76//298 24//298
f 78//299 118//299 79//299
f 13//300 62//300 29//300
f 14//301 44//301 15//301
f 139//302 168//302 129//302
f 55//303 154//303 56//303
f 83//304 34//304 42//304
f 40//305 99//305 141//305
f 68//306 113//306 140//306
f 41//307 69//307 141//307
f 116//308 93//308 18//308
f 159//309 11//309 52//309
f 168//310 123//310 163//310
f 122//311 133//311 123//311
f 157//312 111//312 91//312
f 48//313 115//313 72//313
f 147//311 164//311 148//311
f 30//314 81//314 58//314
f 108//315 59//315 83//315
f 161//316 162//316 12//316
f 38//317 16//317 18//317
f 2//318 105//318 3//318
f 132//319 68//319 125//319
f 1//320 135//320 44//320
f 62//321 13//321 15//321
f 45//322 90//322 2//322
f 101//323 7//323 32//323
f 40//324 41//324 112//324
f 142//325 131//325 125//325
f 23//326 22//326 103//326
f 162//327 165//327 12//327
f 44//328 135//328 15//328
f 135//329 1//329 3//329
f 112//330 119//330 100//330
f 90//331 134//331 81//331
f 50//332 118//332 143//332
f 69//333 127//333 141//333
f 38//334 39//334 98//334
f 141//335 131//335 78//335
f 37//336 39//336 108//336
f 23//337 39//337 109//337
f 66//338 140//338 17//338
f 118//339 51//339 143//339
f 118//340 50//340 51//340
f 23//341 98//341 69//341
f 10//342 11//342 81//342
f 10//343 62//343 15//343
f 30//344 62//344 81//344
f 5//345 49//345 6//345
f 5//346 4//346 64//346
f 8//347 139//347 155//347
f 169//348 115//348 72//348
f 35//349 87//349 88//349
f 32//350 154//350 33//350
f 61//351 75//351 15//351
f 33//352 102//352 126//352
f 150//353 156//353 148//353
f 32//354 154//354 126//354
f 27//355 26//355 29//355
f 2//356 105//356 63//356
f 37//357 38//357 108//357
f 46//358 59//358 18//358
f 16//359 38//359 97//359
f 46//360 35//360 34//360
f 8//361 7//361 101//361
f 93//362 94//362 18//362
f 91//363 111//363 63//363
